<?xml version="1.0" encoding="UTF-8"?>
<svg version="1.1" xmlns="http://www.w3.org/2000/svg" width="2000" height="2000">
<path d="M0 0 C660 0 1320 0 2000 0 C2000 660 2000 1320 2000 2000 C1340 2000 680 2000 0 2000 C0 1340 0 680 0 0 Z " fill="#FEFEFD" transform="translate(0,0)"/>
<path d="M0 0 C1.16162659 0.00027191 2.32325317 0.00054382 3.52008057 0.00082397 C20.01006129 0.0186182 36.3595958 0.19873084 52.75 2.1875 C53.74563965 2.30528809 54.7412793 2.42307617 55.76708984 2.54443359 C64.32989405 3.58009292 72.84149943 4.66371108 81.25024414 6.61132812 C84.20604099 7.29261346 87.17112858 7.92521222 90.13671875 8.5625 C158.26074756 23.55419566 221.7574477 55.57293236 273.75 102.1875 C274.26900879 102.6501123 274.78801758 103.11272461 275.32275391 103.58935547 C282.29532867 109.82979906 288.99391143 116.33658866 295.625 122.9375 C296.32665283 123.63447998 297.02830566 124.33145996 297.7512207 125.04956055 C302.28721855 129.59958002 306.57187295 134.30832775 310.75 139.1875 C311.63918048 140.2084574 312.52849232 141.22930043 313.41796875 142.25 C331.59556288 163.443102 347.3551638 186.69854182 360.75 211.1875 C361.22888672 212.05632812 361.70777344 212.92515625 362.20117188 213.8203125 C376.44252082 239.82142292 388.07122696 267.52080318 395.75 296.1875 C396.02344238 297.20489258 396.29688477 298.22228516 396.57861328 299.27050781 C407.19859091 339.20997585 411.2455009 378.93850775 410.75 420.1875 C410.74274902 421.08275391 410.73549805 421.97800781 410.72802734 422.90039062 C409.64821794 511.55457311 372.33458624 600.98930775 315.75 668.1875 C315.34502289 668.67399017 314.94004578 669.16048035 314.52279663 669.66171265 C307.22701602 678.4147722 299.57146263 686.68402118 291.48608398 694.7121582 C289.67778392 696.50965805 287.88054023 698.31772316 286.08398438 700.12695312 C279.27860937 706.94005531 272.31678592 713.21972692 264.75 719.1875 C262.91390858 720.74675805 261.07995036 722.30853933 259.25 723.875 C225.2723694 752.15315708 185.89774288 773.40378742 144.75 789.1875 C143.294729 789.74630859 143.294729 789.74630859 141.81005859 790.31640625 C84.73816001 811.90633404 22.23905869 818.2943665 -38.25 812.1875 C-39.47605957 812.06391113 -40.70211914 811.94032227 -41.96533203 811.81298828 C-139.64676902 801.5116735 -240.77265809 752.30562111 -303.4375 675.0625 C-304.09492187 674.21816406 -304.75234375 673.37382813 -305.4296875 672.50390625 C-307.21551981 670.23137715 -309.10238889 668.1227924 -311.0625 666 C-327.98855319 647.04548071 -341.78877561 624.75805435 -353.95654297 602.54394531 C-355.14347732 600.3815651 -356.35205455 598.23299117 -357.56640625 596.0859375 C-375.49983023 563.88846447 -387.34701679 528.0641666 -395.25 492.1875 C-395.50507324 491.03330566 -395.76014648 489.87911133 -396.02294922 488.68994141 C-417.89692241 387.11849397 -396.94117179 276.47444216 -341.2199707 189.18359375 C-321.43858051 158.64758414 -298.04940108 128.61042375 -270.25390625 104.9140625 C-267.99766614 102.97008954 -265.81636107 100.95426482 -263.625 98.9375 C-219.48110297 59.22141027 -163.49525404 29.59035437 -106.25 14.1875 C-105.27804687 13.92388672 -104.30609375 13.66027344 -103.3046875 13.38867188 C-85.47077458 8.60761641 -67.50674001 5.19416298 -49.25 2.5 C-48.45053955 2.38052002 -47.6510791 2.26104004 -46.82739258 2.13793945 C-31.26133818 -0.05806843 -15.68697576 -0.01372087 0 0 Z " fill="#112B6D" transform="translate(997.25,383.8125)"/>
<path d="M0 0 C2.20355017 0.00542414 4.40708965 0.00780269 6.61064529 0.00987244 C27.50196663 0.04046987 48.13131218 0.46656083 68.86330032 3.31785583 C70.00363724 3.46239197 71.14397415 3.6069281 72.31886673 3.75584412 C122.28812881 10.10483014 170.09208047 24.50541724 215.86330032 45.31785583 C216.80512161 45.74131287 217.7469429 46.1647699 218.71730423 46.60105896 C232.90624646 53.01109837 246.44280372 60.43620906 259.86330032 68.31785583 C260.67428177 68.79368103 261.48526321 69.26950623 262.32081985 69.75975037 C292.68569271 87.69075878 323.73850031 109.27448386 348.31251907 134.76316833 C349.9872699 136.44213768 351.74522759 137.96822874 353.55080032 139.50535583 C361.24528894 146.1519569 368.45629494 153.4699633 375.03908157 161.21629333 C376.87934497 163.33633981 378.78532684 165.38590599 380.70460892 167.43431091 C386.15974913 173.27613264 391.16859727 179.36062825 396.04689407 185.68894958 C397.94268027 188.14782745 399.87159284 190.57356946 401.83595657 192.97801208 C409.01941633 201.77676323 415.58920795 210.85112406 421.86330032 220.31785583 C422.30496536 220.97978943 422.7466304 221.64172302 423.20167923 222.32371521 C459.76395959 277.26725153 483.49520141 336.07100741 497.86330032 400.31785583 C498.17678421 401.68393982 498.17678421 401.68393982 498.4966011 403.07762146 C501.99497305 418.39332857 503.72079521 433.95307788 505.44044876 449.54832458 C505.78753026 452.64239982 506.16374887 455.72966611 506.55861282 458.81785583 C508.90380463 478.50106431 508.11891328 498.53414156 507.86330032 518.31785583 C507.84928177 519.54923279 507.83526321 520.78060974 507.82081985 522.04930115 C507.45562303 546.3480669 504.72918957 571.16386504 499.38869095 594.87107849 C498.80966889 597.5676208 498.30827097 600.27205264 497.81642532 602.98582458 C484.14236038 677.49626104 449.78314807 748.46318774 403.86330032 808.31785583 C403.14327835 809.25854919 403.14327835 809.25854919 402.40871048 810.21824646 C396.52346774 817.88330861 390.40602636 825.19856774 383.86330032 832.31785583 C382.73390103 833.60567765 381.60871533 834.89721005 380.48830032 836.19285583 C372.66366503 845.13276719 364.5628472 853.71654179 356.17580032 862.13035583 C355.3801265 862.93062195 354.58445267 863.73088806 353.76466751 864.55540466 C348.95802693 869.34956435 344.01445645 873.89866744 338.86330032 878.31785583 C337.70668143 879.33940454 336.55168903 880.3627982 335.39845657 881.38816833 C326.21780453 889.49036633 316.69922556 897.02859651 306.86330032 904.31785583 C306.12676224 904.8647406 305.39022415 905.41162537 304.63136673 905.9750824 C264.8582933 935.39247395 221.21824927 958.18275798 174.86330032 975.31785583 C173.92470169 975.67089783 172.98610306 976.02393982 172.01906204 976.38768005 C148.90488477 985.04875921 124.55619432 991.6546067 100.23488235 995.89842224 C97.73982946 996.33969266 95.2535446 996.81846523 92.76564407 997.29832458 C64.05635946 1002.65804164 35.09574535 1004.69951107 5.92580032 1004.63035583 C4.85333054 1004.62789856 3.78086075 1004.62544128 2.67589188 1004.62290955 C-15.75920045 1004.54712003 -33.96682627 1003.81587489 -52.26169968 1001.50535583 C-52.96936478 1001.41726654 -53.67702988 1001.32917725 -54.40613937 1001.23841858 C-145.32026012 989.88478839 -230.12839464 955.10668864 -334.34373093 871.89207458 C-336.89314417 869.54233567 -339.47675612 867.23914652 -342.07419968 864.94285583 C-350.29414521 857.55816283 -358.25070746 849.75719111 -365.40623093 841.32957458 C-367.55203242 838.83501981 -369.78255645 836.42566602 -372.01169968 834.00535583 C-376.92876958 828.60100874 -381.59563546 823.03979577 -386.13669968 817.31785583 C-386.65780319 816.66397888 -387.17890671 816.01010193 -387.71580124 815.33641052 C-395.97249817 804.94834466 -403.80150711 794.37518144 -411.13669968 783.31785583 C-411.57014694 782.67090759 -412.00359421 782.02395935 -412.45017624 781.35740662 C-458.28052978 712.815416 -489.36548728 630.95639715 -495.13669968 548.31785583 C-495.22403366 547.17913025 -495.31136765 546.04040466 -495.40134811 544.86717224 C-499.22209033 494.66364872 -496.80404758 444.88303587 -486.13669968 395.63035583 C-485.97538559 394.88474396 -485.8140715 394.13913208 -485.64786911 393.3709259 C-481.91422387 376.29724279 -477.10830653 359.57815146 -471.57419968 343.00535583 C-471.31825027 342.23704437 -471.06230087 341.46873291 -470.79859543 340.67713928 C-460.10259292 308.71978627 -446.16609037 278.39367826 -429.13669968 249.31785583 C-428.61930222 248.42904724 -428.10190475 247.54023865 -427.56882858 246.62449646 C-420.89033063 235.18049045 -413.86216959 224.0833121 -406.13669968 213.31785583 C-405.60318893 212.57181091 -405.06967819 211.82576599 -404.52000046 211.05711365 C-394.11271972 196.56200922 -383.12007145 182.58141664 -371.05857468 169.41941833 C-369.31926878 167.51749441 -367.62906837 165.58465852 -365.94919968 163.63035583 C-350.63989633 146.10334966 -350.63989633 146.10334966 -341.98044968 138.91160583 C-339.80441058 137.03062288 -337.82947645 135.00461928 -335.82419968 132.94285583 C-331.72596916 128.78819529 -327.35399462 125.12966487 -322.80076218 121.48582458 C-320.45905551 119.58018353 -318.23160645 117.6120557 -316.01169968 115.56785583 C-309.0923669 109.36134953 -301.5814651 103.87090557 -294.13669968 98.31785583 C-293.40209518 97.76903748 -292.66749069 97.22021912 -291.91062546 96.6547699 C-280.66712191 88.29364206 -269.09404381 80.61723218 -257.13669968 73.31785583 C-256.45881393 72.89971619 -255.78092819 72.48157654 -255.08250046 72.05076599 C-220.10342961 50.54049847 -182.28811375 33.57323545 -143.13669968 21.31785583 C-142.30912155 21.05553162 -141.48154343 20.7932074 -140.62888718 20.52293396 C-117.09155575 13.14355888 -92.65375668 8.01920489 -68.26169968 4.44285583 C-66.9646611 4.25199402 -65.66762253 4.0611322 -64.33127975 3.86448669 C-60.27084761 3.29977728 -56.20848095 2.79206935 -52.13669968 2.31785583 C-51.36987869 2.22569794 -50.60305771 2.13354004 -49.81299973 2.03858948 C-33.23611296 0.10252854 -16.66578022 -0.04263262 0 0 Z M-168.13669968 133.31785583 C-169.5532988 133.99437195 -169.5532988 133.99437195 -170.99851608 134.68455505 C-189.50912872 143.57699675 -207.29806078 153.53293201 -224.13669968 165.31785583 C-224.78783737 165.77208923 -225.43897507 166.22632263 -226.10984421 166.69432068 C-241.01467137 177.13613957 -255.13914564 188.39097207 -268.44529343 200.81004333 C-270.97487625 203.16707116 -273.54678815 205.46506957 -276.13669968 207.75535583 C-284.67126307 215.42409395 -292.71515021 223.56661209 -300.13669968 232.31785583 C-300.98232468 233.27434021 -301.82794968 234.23082458 -302.69919968 235.21629333 C-351.47653919 290.62848036 -383.20025709 359.89163834 -396.13669968 432.31785583 C-396.28977585 433.1436615 -396.44285202 433.96946716 -396.60056686 434.82029724 C-397.60944774 440.30112761 -398.44680898 445.78781429 -399.13669968 451.31785583 C-399.24111374 452.15477966 -399.3455278 452.99170349 -399.45310593 453.85398865 C-404.79279633 499.86657398 -401.79273766 547.13561782 -392.13669968 592.31785583 C-391.9438237 593.24243591 -391.75094772 594.16701599 -391.55222702 595.11961365 C-385.9789603 621.33403719 -376.12356928 646.96025282 -365.13669968 671.31785583 C-364.56918991 672.59523621 -364.56918991 672.59523621 -363.9902153 673.89842224 C-352.00026795 700.77893706 -336.3128375 726.18156318 -318.13669968 749.31785583 C-317.25830872 750.46178336 -316.38075411 751.60635341 -315.50388718 752.75144958 C-310.46056889 759.29900852 -305.26018921 765.57507912 -299.62107468 771.62254333 C-297.69370503 773.71355758 -295.83239131 775.82966647 -293.98044968 777.98582458 C-289.49919265 783.1234639 -284.70392159 787.9346583 -279.88669968 792.75535583 C-279.00884811 793.64545349 -278.13099655 794.53555115 -277.22654343 795.45262146 C-271.92327258 800.76753931 -266.45229651 805.67575443 -260.57395554 810.34812927 C-258.28266564 812.19988995 -256.10872849 814.12777352 -253.94919968 816.13035583 C-240.22774333 828.38337562 -224.53582626 838.34532778 -209.13669968 848.31785583 C-208.09545944 848.99243835 -208.09545944 848.99243835 -207.03318405 849.6806488 C-170.33930021 873.18089396 -128.49713241 889.5446409 -86.13669968 899.31785583 C-85.19713425 899.53780212 -84.25756882 899.75774841 -83.28953171 899.98435974 C-64.4394977 904.31189829 -45.35942865 906.46627508 -26.13669968 908.31785583 C-24.77520798 908.44934021 -24.77520798 908.44934021 -23.3862114 908.58348083 C-18.30232166 909.04174695 -13.23940808 909.23005157 -8.13669968 909.31785583 C-6.93738815 909.34363708 -5.73807663 909.36941833 -4.50242233 909.39598083 C83.91749825 911.15924392 172.43515423 885.16899529 243.86330032 832.31785583 C245.23032763 831.32154225 246.5975168 830.32545072 247.96486282 829.32957458 C256.96231387 822.72737499 265.51566351 815.72081713 273.86330032 808.31785583 C274.76435501 807.52894958 275.6654097 806.74004333 276.59376907 805.92723083 C283.27522903 799.94958989 289.65155828 793.65698543 296.01323318 787.34315491 C297.02088188 786.34354612 298.03000634 785.34542229 299.04076004 784.34895325 C305.7873314 777.68766929 311.95905715 770.73777669 317.86330032 763.31785583 C318.7266863 762.29030388 319.59507768 761.26689074 320.47267532 760.25144958 C377.42384542 693.84305963 411.52139467 602.68054132 412.86330032 515.31785583 C412.88376419 514.22215271 412.90422806 513.12644958 412.92531204 511.99754333 C413.63418556 468.59808018 408.94741157 424.82215548 395.52882767 383.3759613 C394.78689117 381.08156487 394.07049949 378.77971984 393.35158157 376.47801208 C380.91500636 337.32171086 362.12319625 299.51406608 337.86330032 266.31785583 C337.46562454 265.77145447 337.06794876 265.2250531 336.6582222 264.66209412 C322.26422705 244.97409663 306.30484208 226.71306885 289.11330032 209.44285583 C288.0679512 208.39049744 288.0679512 208.39049744 287.00148392 207.31687927 C282.45123629 202.78065232 277.7393401 198.49989365 272.86330032 194.31785583 C271.39956985 193.03201599 271.39956985 193.03201599 269.90626907 191.72019958 C250.82578442 175.24990435 229.76382217 160.78333854 207.86330032 148.31785583 C207.01058548 147.83204041 206.15787064 147.34622498 205.27931595 146.84568787 C182.32979855 133.87370074 158.70804573 123.86664821 133.78712845 115.32810974 C131.45217905 114.52132779 129.1316106 113.69071057 126.81642532 112.82957458 C114.6042068 108.42916251 101.78575129 105.8882275 89.13795853 103.05271912 C87.18957413 102.61548382 85.24231911 102.17308431 83.2976265 101.7197113 C73.92889149 99.55287683 64.40357112 98.44650739 54.86330032 97.31785583 C53.96691849 97.20909119 53.07053665 97.10032654 52.14699173 96.98826599 C35.51031481 95.07485042 18.83609691 95.13427028 2.11330032 95.13035583 C0.97342667 95.12935883 -0.16644699 95.12836182 -1.34086227 95.12733459 C-59.08359021 95.13304584 -116.038478 108.29056913 -168.13669968 133.31785583 Z " fill="#FEFEFC" transform="translate(995.1366996765137,288.68214416503906)"/>
<path d="M0 0 C2.97232321 1.18611636 4.99306919 2.71305159 7.4765625 4.73828125 C41.4298498 31.23365235 85.3149623 49.66539869 126.63964844 61.38818359 C128.4765625 61.98828125 128.4765625 61.98828125 129.4765625 62.98828125 C130.80706447 92.29026639 126.20367006 120.70758659 115.4765625 147.98828125 C115.14140625 148.84663574 114.80625 149.70499023 114.4609375 150.58935547 C104.45834755 175.86175741 90.33613446 197.45225405 71.4765625 216.98828125 C70.55831912 217.96979523 69.64035414 218.95156973 68.72265625 219.93359375 C60.7540662 228.32035654 51.83488696 235.22101662 42.4765625 241.98828125 C41.88601074 242.42350098 41.29545898 242.8587207 40.68701172 243.30712891 C32.68984249 249.16058349 24.11398271 254.08300123 15.41448975 258.80935669 C14.21655619 259.46446337 13.02387113 260.12927066 11.8369751 260.8041687 C2.46522448 266.10334993 2.46522448 266.10334993 -2.06347656 265.84130859 C-4.40346662 265.10624105 -6.38111884 264.17746053 -8.5234375 262.98828125 C-9.51899658 262.5238562 -9.51899658 262.5238562 -10.53466797 262.05004883 C-12.56977406 261.0914554 -14.54437501 260.05750389 -16.5234375 258.98828125 C-17.24619873 258.60091797 -17.96895996 258.21355469 -18.71362305 257.81445312 C-34.33379098 249.29282687 -49.15198117 239.17419719 -62.23046875 227.09375 C-64.26433204 225.22619921 -66.34490773 223.44843905 -68.4609375 221.67578125 C-91.18127717 201.73287789 -107.27305708 174.06337501 -117.77197266 145.98852539 C-118.32427332 144.51841513 -118.89426742 143.05492119 -119.47412109 141.59545898 C-122.36380771 134.09754056 -124.0867288 126.54629732 -125.6484375 118.67578125 C-126.02548828 116.85143555 -126.02548828 116.85143555 -126.41015625 114.99023438 C-129.1274687 101.59573348 -130.83670261 88.79870636 -130.6484375 75.11328125 C-130.63941406 73.84097656 -130.63039063 72.56867188 -130.62109375 71.2578125 C-130.59786027 68.16775907 -130.5652009 65.07813008 -130.5234375 61.98828125 C-129.51893555 61.65731445 -128.51443359 61.32634766 -127.47949219 60.98535156 C-85.13242311 46.98355954 -39.27156753 31.16919913 -5.046875 1.5859375 C-2.5234375 -0.01171875 -2.5234375 -0.01171875 0 0 Z " fill="#F4F4F1" transform="translate(1130.5234375,581.01171875)"/>
<path d="M0 0 C3.01034688 0.98852958 6.02882977 1.94742903 9.05029297 2.90136719 C34.69653179 11.09493934 59.02696289 21.96007241 83.05419922 34.00292969 C83.96137695 34.45522949 84.86855469 34.9075293 85.80322266 35.37353516 C105.09589005 45.0500963 123.52395695 56.42245736 141.05419922 69.00292969 C141.68229492 69.4523291 142.31039062 69.90172852 142.95751953 70.36474609 C159.52562853 82.26120541 175.43466243 94.95978522 190.51489258 108.69897461 C192.11436495 110.15020245 193.72049681 111.59415652 195.3359375 113.02758789 C201.6855416 118.66838364 207.7500261 124.54761108 213.74169922 130.56542969 C214.63953125 131.45939453 215.53736328 132.35335937 216.46240234 133.27441406 C221.53682135 138.35626811 226.38886672 143.54546637 231.05419922 149.00292969 C232.07555752 150.15971671 233.09895844 151.31470384 234.12451172 152.46777344 C241.64639978 160.99192961 248.66530655 169.80662743 255.4765625 178.90625 C256.99689722 180.92677531 258.53572195 182.93155113 260.08154297 184.93261719 C268.00604646 195.2436908 275.15056312 205.98603658 282.05419922 217.00292969 C282.54887695 217.79119141 283.04355469 218.57945312 283.55322266 219.39160156 C303.95005013 252.11917645 320.10424262 286.70372617 333.05419922 323.00292969 C333.38081543 323.91397461 333.70743164 324.82501953 334.04394531 325.76367188 C346.88925707 362.19485001 354.15933226 400.66759422 358.05419922 439.00292969 C358.18870483 440.3142688 358.18870483 440.3142688 358.32592773 441.65209961 C359.80590245 456.46084743 360.37138646 471.14951113 360.31494141 486.02929688 C360.30422577 489.36965156 360.31491721 492.70946609 360.32763672 496.04980469 C360.34435145 518.31861271 358.6591634 540.30554719 355.30419922 562.31542969 C355.17381256 563.18480164 355.0434259 564.05417358 354.90908813 564.94989014 C340.88537452 658.12880614 301.87421101 748.35521393 239.84082031 819.77661133 C238.03648373 821.85583964 236.26266783 823.95182965 234.4987793 826.06640625 C226.99279004 835.05241818 218.95499772 843.41184094 210.65405273 851.66381836 C208.48363361 853.82345523 206.32420105 855.99366871 204.16552734 858.16503906 C197.48332505 864.8533055 190.81601855 871.34184524 183.35864258 877.16992188 C180.85992649 879.15745873 178.52143351 881.27163885 176.17919922 883.44042969 C102.04480621 950.71913431 -1.46783484 989.59714728 -109.94580078 1001.00292969 C-110.93257812 1001.10081787 -111.91935547 1001.19870605 -112.93603516 1001.29956055 C-124.43385521 1002.30088562 -135.96694078 1002.18899617 -147.49951172 1002.18823242 C-151.14579284 1002.19039996 -154.79176118 1002.20855343 -158.43798828 1002.22753906 C-180.07649496 1002.28070021 -201.53533281 1000.99967457 -222.94580078 997.81542969 C-223.66538971 997.71033081 -224.38497864 997.60523193 -225.12637329 997.49694824 C-270.6891677 990.79651913 -314.74528988 978.56602618 -356.94580078 960.00292969 C-357.98704102 959.54547363 -359.02828125 959.08801758 -360.10107422 958.61669922 C-402.26625622 939.94427977 -443.14121685 915.83156729 -478.05517578 885.49511719 C-480.71998277 883.19762143 -483.43993795 881.00196756 -486.19580078 878.81542969 C-498.18852064 869.017343 -509.11169475 857.9216813 -520.07080078 847.00292969 C-521.38540283 845.69533691 -521.38540283 845.69533691 -522.7265625 844.36132812 C-527.67394882 839.40157571 -532.39415908 834.32610651 -536.94580078 829.00292969 C-538.00269984 827.79961617 -539.06127134 826.59776936 -540.12158203 825.39746094 C-546.54710576 818.07767892 -552.74559145 810.66064232 -558.56787109 802.84912109 C-559.55004038 801.53318131 -560.53688216 800.22072348 -561.52685547 798.91064453 C-570.56172543 786.95364842 -578.9838797 774.69940877 -586.94580078 762.00292969 C-587.35636719 761.34905273 -587.76693359 760.69517578 -588.18994141 760.02148438 C-605.17607397 732.77711673 -619.36715879 703.91830791 -630.94580078 674.00292969 C-631.3922998 672.85824219 -631.83879883 671.71355469 -632.29882812 670.53417969 C-637.80439739 656.34790329 -642.56859686 642.19311146 -646.30761719 627.44335938 C-646.89704129 625.18938718 -647.53563031 622.96005983 -648.20751953 620.72949219 C-671.68663573 542.38591057 -670.42578154 454.34477673 -641.94580078 336.00292969 C-641.58260742 334.87902832 -641.21941406 333.75512695 -640.84521484 332.59716797 C-625.77462159 286.46308297 -604.56183496 241.97865964 -576.94580078 202.00292969 C-576.47674316 201.32133789 -576.00768555 200.63974609 -575.52441406 199.9375 C-568.67197846 190.01016666 -561.5251268 180.38601778 -553.94580078 171.00292969 C-553.19814453 170.07222656 -552.45048828 169.14152344 -551.68017578 168.18261719 C-549.45590968 165.43828886 -547.20837177 162.71576356 -544.94580078 160.00292969 C-544.51219238 159.4829541 -544.07858398 158.96297852 -543.63183594 158.42724609 C-529.59368489 141.6576677 -514.63877311 124.83683863 -497.91064453 110.69042969 C-495.48622348 108.60822314 -493.16230046 106.42790762 -490.82080078 104.25292969 C-485.61780363 99.50859896 -480.17900244 95.15860244 -474.60986328 90.85449219 C-472.13951831 88.94396884 -469.7002403 87.00209928 -467.28173828 85.02636719 C-458.48371921 77.84499865 -449.41098104 71.27599378 -439.94580078 65.00292969 C-438.95290039 64.34043213 -438.95290039 64.34043213 -437.93994141 63.66455078 C-369.73118753 18.27490625 -293.3590165 -9.59942277 -212.07080078 -19.68457031 C-210.76592712 -19.84786835 -210.76592712 -19.84786835 -209.43469238 -20.01446533 C-140.01209322 -28.63288394 -66.48311044 -21.89908602 0 0 Z M-303.94580078 10.00292969 C-304.98317383 10.33905273 -306.02054688 10.67517578 -307.08935547 11.02148438 C-331.90201261 19.15836834 -355.58388348 29.37071982 -378.94580078 41.00292969 C-379.9084082 41.47956055 -380.87101562 41.95619141 -381.86279297 42.44726562 C-403.98081846 53.46468892 -425.07074332 66.31833341 -444.94580078 81.00292969 C-445.60692871 81.48681152 -446.26805664 81.97069336 -446.94921875 82.46923828 C-460.03185688 92.05475626 -472.83324759 102.05171223 -484.78564453 113.02636719 C-486.82695494 114.89418467 -488.90768701 116.7024036 -491.00830078 118.50292969 C-494.76446714 121.76784692 -498.23633041 125.27482021 -501.72705078 128.81933594 C-503.73455845 130.79503451 -505.79369623 132.62565898 -507.94580078 134.44042969 C-511.7924518 137.74945822 -515.11208343 141.39660256 -518.46142578 145.20214844 C-520.73614611 147.76657371 -523.054585 150.2782591 -525.39599609 152.78125 C-531.18855675 158.9826114 -536.65151539 165.36730689 -541.94580078 172.00292969 C-542.86671263 173.13262177 -543.78864189 174.26148501 -544.71142578 175.38964844 C-564.3678575 199.52603932 -580.87611386 225.60678887 -595.78320312 252.88623047 C-596.8207052 254.77517271 -597.87408604 256.65390306 -598.93408203 258.53027344 C-613.24688601 284.39999988 -624.31001286 312.74882114 -632.94580078 341.00292969 C-633.340979 342.28780273 -633.340979 342.28780273 -633.74414062 343.59863281 C-646.61607328 386.03028037 -653.50904452 429.72471393 -654.94580078 474.00292969 C-654.98576172 475.22367188 -655.02572266 476.44441406 -655.06689453 477.70214844 C-655.90472772 508.43386993 -653.93922294 539.90086495 -648.453125 570.16455078 C-647.93923007 573.03969153 -647.47056122 575.91923226 -647.01220703 578.80371094 C-640.29492607 620.45226112 -627.10140786 661.63106706 -609.00488281 699.75683594 C-607.92959574 702.03729722 -606.88638142 704.33039012 -605.84814453 706.62792969 C-588.55494591 744.52974685 -564.80150597 781.17332582 -537.2890625 812.44921875 C-535.19327307 814.87335614 -533.1995151 817.37756823 -531.19580078 819.87792969 C-527.9461139 823.88431261 -524.519847 827.54116022 -520.82080078 831.13183594 C-519.05103278 832.89791692 -517.43454458 834.71967765 -515.82080078 836.62792969 C-508.53850669 845.0820872 -500.4364912 853.09778121 -491.92236328 860.30761719 C-489.43719884 862.43916139 -487.04139932 864.65976568 -484.63330078 866.87792969 C-479.22868996 871.79523953 -473.66510623 876.45822889 -467.94580078 881.00292969 C-466.98891357 881.76863281 -466.98891357 881.76863281 -466.01269531 882.54980469 C-454.68161903 891.59564409 -443.01988114 899.9804319 -430.94580078 908.00292969 C-430.26259766 908.46231934 -429.57939453 908.92170898 -428.87548828 909.39501953 C-373.4073622 946.65926796 -309.73828525 972.33922058 -243.94580078 984.00292969 C-242.96385742 984.18162598 -241.98191406 984.36032227 -240.97021484 984.54443359 C-229.54624623 986.61285578 -218.10039823 988.32623097 -206.57080078 989.69042969 C-205.07625366 989.86952881 -205.07625366 989.86952881 -203.55151367 990.05224609 C-146.72480125 996.4345717 -88.34591495 991.73494869 -32.94580078 978.00292969 C-32.11371094 977.79667969 -31.28162109 977.59042969 -30.42431641 977.37792969 C-19.47850826 974.63504902 -8.65775694 971.55461607 2.05419922 968.00292969 C2.99118652 967.69371582 3.92817383 967.38450195 4.89355469 967.06591797 C29.79347226 958.79476025 53.5784808 948.7067893 77.05419922 937.00292969 C77.90320801 936.58043945 78.7522168 936.15794922 79.62695312 935.72265625 C110.74201339 920.11166381 140.86434606 900.34629899 167.16357422 877.49511719 C169.82838121 875.19762143 172.54833639 873.00196756 175.30419922 870.81542969 C186.75302808 861.47079947 197.21649742 850.92012735 207.67919922 840.50292969 C208.41275635 839.77404541 209.14631348 839.04516113 209.90209961 838.29418945 C214.49044583 833.69216082 218.82156802 828.93203816 223.05419922 824.00292969 C224.09971945 822.81163517 225.14656414 821.62150154 226.19482422 820.43261719 C233.43943698 812.16950049 240.40934926 803.75575554 247.05419922 795.00292969 C247.86026611 793.94380371 247.86026611 793.94380371 248.68261719 792.86328125 C287.21400011 742.00845175 313.9087852 684.99194503 332.05419922 624.00292969 C332.31571777 623.1440918 332.57723633 622.28525391 332.84667969 621.40039062 C336.65472898 608.89011626 339.08286348 596.17813477 341.42675781 583.32202148 C342.09428928 579.79085796 342.8328863 576.27803034 343.56982422 572.76074219 C345.21435531 564.57319942 346.26311463 556.36252564 347.17919922 548.06542969 C347.30760193 546.91518311 347.30760193 546.91518311 347.43859863 545.74169922 C348.90485066 532.48990675 349.88444871 519.34072221 350.05419922 506.00292969 C350.07998533 504.44579653 350.10604693 502.88866792 350.13232422 501.33154297 C350.51089079 477.35465655 349.93513736 453.81847602 347.05419922 430.00292969 C346.92029785 428.83938965 346.78639648 427.67584961 346.6484375 426.47705078 C343.38637134 398.69215514 337.56977342 370.66838349 329.05419922 344.00292969 C328.71195313 342.91093262 328.36970703 341.81893555 328.01708984 340.69384766 C315.79166258 301.89757998 299.4354036 264.64179876 278.05419922 230.00292969 C277.46751465 229.05063477 276.88083008 228.09833984 276.27636719 227.1171875 C265.47919986 209.68490588 253.93940176 192.95461066 241.05419922 177.00292969 C240.30654297 176.07222656 239.55888672 175.14152344 238.78857422 174.18261719 C227.25499203 159.86823184 227.25499203 159.86823184 214.60888672 146.55371094 C212.92991738 144.87896011 211.40382631 143.12100242 209.86669922 141.31542969 C203.22009816 133.62094107 195.90209176 126.40993507 188.15576172 119.82714844 C186.03562814 117.98680944 183.98597829 116.08074947 181.9375 114.16137695 C175.51992927 108.16866644 168.78180225 102.72203821 161.82324219 97.37353516 C160.08610898 96.02765249 158.36659388 94.66235103 156.65185547 93.28808594 C113.76497463 58.97365103 64.56851156 32.66548267 12.66552734 14.90966797 C10.3584474 14.10857458 8.07176414 13.27159406 5.78857422 12.40527344 C-30.67905042 -1.33830755 -70.27837735 -7.57024459 -108.94580078 -10.99707031 C-109.88730484 -11.0829541 -110.8288089 -11.16883789 -111.79884338 -11.25732422 C-120.0736972 -11.96017686 -128.295757 -12.17268248 -136.59814453 -12.20019531 C-137.61631854 -12.20443638 -137.61631854 -12.20443638 -138.65506172 -12.20876312 C-142.26231373 -12.22363875 -145.8695271 -12.23293586 -149.47680664 -12.23730469 C-152.38416402 -12.24164439 -155.29121709 -12.25537579 -158.19848633 -12.27832031 C-207.59951659 -12.66002814 -256.89393681 -5.24814571 -303.94580078 10.00292969 Z " fill="#5385FE" transform="translate(1152.94580078125,300.9970703125)"/>
<path d="M0 0 C4.18990995 1.15830275 7.71989426 3.58728644 11.375 5.875 C21.61837089 12.14031242 32.29137442 17.5815185 43 23 C43.77762695 23.39687012 44.55525391 23.79374023 45.35644531 24.20263672 C61.38266945 32.32330734 78.25299904 38.55031369 95 45 C91.52221653 88.58428985 70.76927481 130.78488718 37.44677734 159.33056641 C28.76996901 166.55227373 19.54311698 172.98082602 10 179 C9.4107373 179.39848145 8.82147461 179.79696289 8.21435547 180.20751953 C5.38972092 182.01599819 3.41630637 182.99616055 0.03515625 183.02734375 C-3.88472358 181.70053758 -7.10286501 179.80873746 -10.5625 177.5625 C-11.26213867 177.11511475 -11.96177734 176.66772949 -12.68261719 176.20678711 C-24.05400604 168.8303671 -34.20375622 160.34092541 -44 151 C-44.79148437 150.26136719 -45.58296875 149.52273438 -46.3984375 148.76171875 C-73.51312111 122.74113641 -91.61914603 82.50364082 -93 45 C-86.80105408 42.40281038 -80.59395935 39.82881672 -74.36328125 37.30859375 C-48.5880019 26.84563178 -23.22906475 15.48604317 0 0 Z " fill="#132D6E" transform="translate(1129,624)"/>
<path d="M0 0 C9.18845684 7.85164374 16.49775985 17.12203251 20.73828125 28.48828125 C21.00560059 29.18348877 21.27291992 29.87869629 21.54833984 30.5949707 C24.12614455 38.09234292 24.15113558 45.24550154 24.05078125 53.11328125 C24.05400391 54.38429688 24.05722656 55.6553125 24.06054688 56.96484375 C23.96026276 74.46897964 17.62681552 90.42779241 5.48828125 103.23828125 C-10.3129642 118.11160121 -29.54137622 122.2088116 -50.57617188 121.62451172 C-69.24318394 120.67758511 -85.38247173 113.32294996 -98.34765625 99.82421875 C-111.79722548 83.41025467 -116.06387502 64.25983242 -114.26171875 43.48828125 C-112.18701845 28.38792091 -105.09421629 15.03571307 -94.26171875 4.48828125 C-93.67132812 3.86566406 -93.0809375 3.24304687 -92.47265625 2.6015625 C-69.40125224 -20.01247887 -24.4935485 -19.63777098 0 0 Z " fill="#5082FE" transform="translate(1570.26171875,1596.51171875)"/>
<path d="M0 0 C83.21510297 0 83.21510297 0 105 16 C105.65355469 16.47050781 106.30710937 16.94101563 106.98046875 17.42578125 C117.88948058 25.97478611 123.78980229 39.59920777 126 53 C126.2763455 56.06944426 126.33425165 59.10676269 126.3125 62.1875 C126.30831055 63.01048584 126.30412109 63.83347168 126.29980469 64.68139648 C126.02729732 79.60697271 121.85406301 92.96219254 113 105 C112.2575 106.03125 111.515 107.0625 110.75 108.125 C96.06257248 123.48003786 76.21518146 126.96772278 56 130 C37.52 130 19.04 130 0 130 C0 87.1 0 44.2 0 0 Z " fill="#5083FE" transform="translate(1123,1409)"/>
<path d="M0 0 C11.55 0 23.1 0 35 0 C35 42.9 35 85.8 35 130 C-3 130 -3 130 -10.5625 123.5625 C-11.71649709 121.46682555 -12.87016346 119.36689182 -13.88037109 117.19824219 C-15.8570621 113.31727276 -18.66173137 110.07335241 -21.375 106.6875 C-22.46600882 105.26199147 -23.55321875 103.83356789 -24.63671875 102.40234375 C-28.65415636 97.13115394 -32.72662798 91.90320132 -36.80419922 86.6784668 C-41.90158686 80.1428601 -46.945931 73.5702897 -52 67 C-52.33 87.79 -52.66 108.58 -53 130 C-64.55 130 -76.1 130 -88 130 C-88 87.43 -88 44.86 -88 1 C-50 1 -50 1 -41.25 9.125 C-38.390625 14.13671875 -38.390625 14.13671875 -37.17382812 16.65380859 C-35.47955269 20.04024514 -33.27788603 22.92841841 -31 25.9375 C-30.20305257 27.05968502 -29.41016972 28.18476619 -28.62109375 29.3125 C-24.97068898 34.47808645 -21.19531398 39.55224819 -17.43554688 44.63842773 C-11.93650163 52.07759472 -6.47094711 59.53961758 -1 67 C-0.67 44.89 -0.34 22.78 0 0 Z " fill="#5082FE" transform="translate(1698,1585)"/>
<path d="M0 0 C14.19 0 28.38 0 43 0 C43 16.17 43 32.34 43 49 C56.2 49 69.4 49 83 49 C83 32.83 83 16.66 83 0 C96.86 0 110.72 0 125 0 C125 42.57 125 85.14 125 129 C111.14 129 97.28 129 83 129 C83 112.5 83 96 83 79 C69.8 79 56.6 79 43 79 C43 95.83 43 112.66 43 130 C28.81 130 14.62 130 0 130 C0 87.1 0 44.2 0 0 Z " fill="#5083FE" transform="translate(879,1409)"/>
<path d="M0 0 C20.46 0 40.92 0 62 0 C64.31 8.58 66.62 17.16 69 26 C70.30163392 30.35117623 71.61280995 34.67854393 73 39 C75.75600446 47.76183672 78.28217687 56.55638415 80.625 65.4375 C82.81061808 73.72246023 85.15124074 81.91444342 87.79248047 90.06518555 C90.53949561 98.57097018 92.96507582 107.16728761 95.36914062 115.77539062 C95.77157094 117.19448699 96.18575524 118.61033863 96.61523438 120.02148438 C97.58726432 123.2308885 98 125.58975794 98 129 C82.82 129 67.64 129 52 129 C48 109 48 109 48 104 C36.78 104 25.56 104 14 104 C13.0994299 109.23380197 13.0994299 109.23380197 12.20556641 114.46875 C12.08874512 115.1390625 11.97192383 115.809375 11.8515625 116.5 C11.67874756 117.50546875 11.67874756 117.50546875 11.50244141 118.53125 C10.78689963 122.04707042 9.87019245 125.5192302 9 129 C-5.52 129 -20.04 129 -35 129 C-32.75420875 115.52525253 -32.75420875 115.52525253 -31.3125 110.75 C-30.96445312 109.57308594 -30.61640625 108.39617187 -30.2578125 107.18359375 C-29.83859102 105.78904766 -29.41931538 104.39451785 -29 103 C-24.92210331 89.32875903 -21.08089723 75.62947018 -17.55981445 61.80371094 C-15.60718737 54.1908258 -13.45280469 46.66920842 -11.13305664 39.16113281 C-9.11023689 32.54840797 -7.400853 25.87918383 -5.82373047 19.14672852 C-4.2487281 12.55533663 -2.17260738 6.51782213 0 0 Z " fill="#5082FE" transform="translate(506,1586)"/>
<path d="M0 0 C20.13 0 40.26 0 61 0 C63.51462904 6.91522987 65.86308244 13.63103995 67.8125 20.6875 C68.33006803 22.5288318 68.84832452 24.36997019 69.3671875 26.2109375 C69.63370117 27.15936523 69.90021484 28.10779297 70.17480469 29.08496094 C71.566884 34.0025429 73.00240672 38.90733035 74.4375 43.8125 C74.7277002 44.80580322 75.01790039 45.79910645 75.31689453 46.82250977 C76.21081984 49.88180291 77.10540817 52.9409017 78 56 C84.85216145 79.44521137 84.85216145 79.44521137 87.8984375 90.16015625 C89.75588252 96.63486708 91.6491448 103.09915773 93.5390625 109.56445312 C94.1087029 111.51369138 94.67681631 113.46337674 95.24316406 115.41357422 C95.70469835 116.99083044 96.17353805 118.566003 96.65527344 120.13720703 C97.61605118 123.31081294 98 125.62237579 98 129 C82.82 129 67.64 129 52 129 C48 108 48 108 48 104 C36.78 104 25.56 104 14 104 C13.34 107.96 12.68 111.92 12 116 C10.515 122.435 10.515 122.435 9 129 C-5.52 129 -20.04 129 -35 129 C-33.87506366 120.00050925 -33.87506366 120.00050925 -32.765625 116.0390625 C-32.40319702 114.72832764 -32.40319702 114.72832764 -32.03344727 113.39111328 C-31.77490967 112.4782959 -31.51637207 111.56547852 -31.25 110.625 C-30.98050537 109.65675293 -30.71101074 108.68850586 -30.43334961 107.69091797 C-29.88410849 105.71909214 -29.33261635 103.74789186 -28.77880859 101.77734375 C-28.09042287 99.322461 -27.4112793 96.86538597 -26.73828125 94.40625 C-24.68487227 86.91864387 -22.55400903 79.45763286 -20.3605957 72.00976562 C-17.70481431 62.99092586 -15.17495069 53.97969049 -12.95703125 44.84375 C-11.32871336 38.30389366 -9.48105353 31.82600734 -7.65429688 25.33935547 C-6.97399904 22.90703687 -6.30585601 20.47163632 -5.640625 18.03515625 C-5.41818115 17.22353027 -5.1957373 16.4119043 -4.96655273 15.57568359 C-4.54208618 14.02580236 -4.1196042 12.47537572 -3.69946289 10.92431641 C-2.66023295 7.14569192 -1.46165868 3.6541467 0 0 Z " fill="#5082FE" transform="translate(1194,1586)"/>
<path d="M0 0 C3.22573624 1.5405254 6.40214715 3.15941691 9.56054688 4.83227539 C10.91998415 5.54493597 12.27969604 6.25707291 13.63964844 6.96875 C14.3486731 7.34031219 15.05769775 7.71187439 15.78820801 8.09469604 C32.11183564 16.63315657 48.6014795 24.49399439 65.73242188 31.30493164 C66.30806823 37.41089474 64.24862332 42.52187367 62.23242188 48.17993164 C61.87148437 49.20062744 61.51054688 50.22132324 61.13867188 51.27294922 C49.90290376 82.29566575 28.62734911 109.71228728 0.18945312 126.83618164 C-2.26757812 127.30493164 -2.26757812 127.30493164 -5.24804688 125.84790039 C-6.30636719 125.0705957 -7.3646875 124.29329102 -8.45507812 123.49243164 C-9.02315186 123.07880371 -9.59122559 122.66517578 -10.17651367 122.23901367 C-14.68882314 118.89388825 -18.90016532 115.25146297 -23.00195312 111.41430664 C-25.05555212 109.50233516 -27.16851784 107.71704841 -29.33007812 105.92993164 C-50.10071694 87.74519565 -62.27766955 60.38161093 -69.26757812 34.30493164 C-69.26757812 33.31493164 -69.26757812 32.32493164 -69.26757812 31.30493164 C-68.61088135 31.03455078 -67.95418457 30.76416992 -67.27758789 30.4855957 C-36.3268061 17.85351045 -36.3268061 17.85351045 -7.12255859 1.71850586 C-2.85796573 -0.87603665 -2.85796573 -0.87603665 0 0 Z " fill="#F5F5F1" transform="translate(1131.267578125,652.695068359375)"/>
<path d="M0 0 C83.12992295 0 83.12992295 0 100.0078125 16.59375 C107.77829582 25.97927496 108.82134822 36.07514928 108.21337891 47.82421875 C107.0890534 59.28873695 100.39903151 67.56979382 91.91015625 74.7734375 C76.70164019 85.93201353 59.25142912 85 41 85 C41 99.52 41 114.04 41 129 C27.47 129 13.94 129 0 129 C0 86.43 0 43.86 0 0 Z " fill="#4F82FE" transform="translate(758,1409)"/>
<path d="M0 0 C1.05695068 0.43807983 1.05695068 0.43807983 2.13525391 0.88500977 C7.01999597 3.08332493 7.01999597 3.08332493 8.00634766 5.40625 C8.30747614 8.14838993 7.89226411 10.28431462 7.2890625 12.9765625 C7.06476563 13.99234375 6.84046875 15.008125 6.609375 16.0546875 C6.24585938 17.63636719 6.24585938 17.63636719 5.875 19.25 C5.64039063 20.3121875 5.40578125 21.374375 5.1640625 22.46875 C3.40887817 30.30724366 3.40887817 30.30724366 2.25 32.625 C1.59515625 32.44324219 0.9403125 32.26148438 0.265625 32.07421875 C-1.67875393 31.53869065 -3.62561809 31.01214447 -5.57421875 30.4921875 C-7.56568339 29.94839273 -9.54947305 29.37467134 -11.51953125 28.7578125 C-17.74479339 26.92941383 -23.6704551 26.28883237 -30.125 26.1875 C-30.88627197 26.16534424 -31.64754395 26.14318848 -32.43188477 26.12036133 C-37.78269556 26.14098897 -40.57224893 27.2761678 -44.75 30.625 C-44.72322784 34.02814801 -44.72322784 34.02814801 -43.75 37.625 C-41.2098639 39.57941446 -41.2098639 39.57941446 -37.8125 40.6875 C-37.19858398 40.925896 -36.58466797 41.16429199 -35.95214844 41.40991211 C-30.09879939 43.63438849 -24.11237008 45.50588715 -18.16235352 47.45214844 C-5.14901061 51.75403374 5.92988768 57.92129302 12.41015625 70.58203125 C17.00398584 81.75678881 14.51537024 95.02975847 10.07128906 105.85351562 C5.47507923 115.76733803 -3.14267198 122.17341223 -13.203125 125.90625 C-16.37024405 126.90041293 -19.5340048 127.80445802 -22.75 128.625 C-23.35642334 128.8000708 -23.96284668 128.9751416 -24.58764648 129.15551758 C-43.07321603 133.16903798 -65.18353211 129.46702354 -81.75 120.625 C-82.41 120.295 -83.07 119.965 -83.75 119.625 C-83.10901503 113.04822711 -82.07407366 106.65914989 -80.75 100.1875 C-80.57210937 99.29095703 -80.39421875 98.39441406 -80.2109375 97.47070312 C-78.88149889 90.88799779 -78.88149889 90.88799779 -77.75 88.625 C-74.51724211 89.6500208 -71.42334305 90.76754121 -68.3125 92.125 C-57.21607892 96.7971773 -44.69264803 97.73964715 -32.75 96.625 C-28.96302648 95.07491886 -28.96302648 95.07491886 -25.75 92.625 C-25.33307147 89.20899407 -25.33307147 89.20899407 -25.75 85.625 C-28.37625512 83.16388315 -31.02332417 82.00083436 -34.41796875 80.90625 C-35.31193359 80.61363281 -36.20589844 80.32101562 -37.12695312 80.01953125 C-38.51817383 79.57673828 -38.51817383 79.57673828 -39.9375 79.125 C-40.84564453 78.82980469 -41.75378906 78.53460937 -42.68945312 78.23046875 C-45.3749476 77.3577311 -48.06237603 76.4911537 -50.75 75.625 C-62.62597513 71.79486197 -74.03567315 67.42098889 -80.625 56.125 C-85.68234456 45.95922659 -86.44509167 35.16480135 -83.125 24.25 C-79.03931375 13.51617618 -70.92258584 4.92304037 -60.625 -0.1875 C-41.76505736 -7.93027811 -18.72579902 -7.8761317 0 0 Z " fill="#5083FE" transform="translate(798.75,1588.375)"/>
<path d="M0 0 C1.05695068 0.43807983 1.05695068 0.43807983 2.13525391 0.88500977 C7.01999597 3.08332493 7.01999597 3.08332493 8.00634766 5.40625 C8.30747614 8.14838993 7.89226411 10.28431462 7.2890625 12.9765625 C7.06476563 13.99234375 6.84046875 15.008125 6.609375 16.0546875 C6.24585938 17.63636719 6.24585938 17.63636719 5.875 19.25 C5.64039063 20.3121875 5.40578125 21.374375 5.1640625 22.46875 C3.40887817 30.30724366 3.40887817 30.30724366 2.25 32.625 C1.59515625 32.44324219 0.9403125 32.26148438 0.265625 32.07421875 C-1.67875393 31.53869065 -3.62561809 31.01214447 -5.57421875 30.4921875 C-7.56568339 29.94839273 -9.54947305 29.37467134 -11.51953125 28.7578125 C-17.74479339 26.92941383 -23.6704551 26.28883237 -30.125 26.1875 C-30.88627197 26.16534424 -31.64754395 26.14318848 -32.43188477 26.12036133 C-37.78269556 26.14098897 -40.57224893 27.2761678 -44.75 30.625 C-45.13483922 33.96878592 -45.13483922 33.96878592 -43.75 37.625 C-37.03827195 42.65510828 -27.29143662 44.45024993 -19.38842773 47.04345703 C-5.90148065 51.50808491 5.6496399 57.37376266 12.41015625 70.58203125 C17.00398584 81.75678881 14.51537024 95.02975847 10.07128906 105.85351562 C5.47664085 115.76396968 -3.12699878 122.14232069 -13.16796875 125.90625 C-34.6732945 132.71019487 -59.41832821 131.82581788 -79.78125 121.67578125 C-80.4309375 121.32902344 -81.080625 120.98226563 -81.75 120.625 C-82.41 120.295 -83.07 119.965 -83.75 119.625 C-83.10901503 113.04822711 -82.07407366 106.65914989 -80.75 100.1875 C-80.57210937 99.29095703 -80.39421875 98.39441406 -80.2109375 97.47070312 C-78.88149889 90.88799779 -78.88149889 90.88799779 -77.75 88.625 C-74.51724211 89.6500208 -71.42334305 90.76754121 -68.3125 92.125 C-57.21607892 96.7971773 -44.69264803 97.73964715 -32.75 96.625 C-28.96302648 95.07491886 -28.96302648 95.07491886 -25.75 92.625 C-25.33307147 89.20899407 -25.33307147 89.20899407 -25.75 85.625 C-28.36662537 83.17602181 -31.00464692 82.00423938 -34.3828125 80.90625 C-35.27226563 80.61363281 -36.16171875 80.32101562 -37.078125 80.01953125 C-38.00109375 79.72433594 -38.9240625 79.42914062 -39.875 79.125 C-40.77476562 78.82980469 -41.67453125 78.53460937 -42.6015625 78.23046875 C-47.04978149 76.77968468 -51.50484311 75.41091131 -56.0078125 74.140625 C-66.30994794 71.06645314 -75.45512236 64.90398094 -80.953125 55.5859375 C-85.59966339 46.84913644 -86.06408554 36.97015591 -84.06640625 27.32421875 C-80.59604386 15.99154158 -73.42471358 7.26105547 -63.25390625 1.1171875 C-44.28889317 -8.29486951 -19.2922454 -8.11438088 0 0 Z " fill="#5083FE" transform="translate(693.75,1588.375)"/>
<path d="M0 0 C1.62977783 0.00918457 1.62977783 0.00918457 3.29248047 0.01855469 C15.00757779 0.24515231 24.57975362 2.37794424 34.6875 8.4375 C34.23677492 11.93852287 33.77552697 15.43808461 33.3125 18.9375 C33.12300781 20.41089844 33.12300781 20.41089844 32.9296875 21.9140625 C32.17836259 27.5489993 31.18905617 32.95355574 29.6875 38.4375 C28.67171875 38.14875 27.6559375 37.86 26.609375 37.5625 C13.58703908 33.99319178 1.73528248 32.28520259 -10.7578125 38.69140625 C-17.36182692 42.69086713 -20.86347899 47.32248661 -23.41015625 54.5546875 C-26.0132456 65.75585983 -26.22831773 79.09822994 -20.1484375 89.1171875 C-17.28465832 92.73651693 -14.35842682 95.23274065 -10.3125 97.4375 C-9.73113281 97.77394531 -9.14976563 98.11039063 -8.55078125 98.45703125 C1.73970046 103.34556811 14.29327664 100.46784004 24.6875 97.4375 C26.35064186 97.08700316 28.0164624 96.74818028 29.6875 96.4375 C31.42019531 101.20617884 32.44964274 105.89596143 33.3125 110.875 C33.51359375 111.96264648 33.51359375 111.96264648 33.71875 113.07226562 C34.51582911 117.59853629 34.82068638 121.84256998 34.6875 126.4375 C17.28146229 135.99005432 -3.49245468 138.50711389 -22.73071289 133.27368164 C-38.45189897 128.56110543 -51.50440105 119.13892008 -59.8125 104.859375 C-61.07163552 102.4160525 -62.22186647 99.96011038 -63.3125 97.4375 C-63.60898438 96.75945312 -63.90546875 96.08140625 -64.2109375 95.3828125 C-71.05178867 78.51774377 -70.22940642 58.33991094 -63.56494141 41.5546875 C-56.23413293 24.34596338 -43.66836887 11.52202658 -26.38989258 4.19458008 C-17.66805414 1.01601374 -9.24210824 -0.0894351 0 0 Z " fill="#5083FE" transform="translate(1119.3125,1582.5625)"/>
<path d="M0 0 C-0.65808195 10.09815406 -2.35669017 20.02645293 -4 30 C-5.42094147 29.69179846 -6.84142565 29.38148827 -8.26171875 29.0703125 C-9.05280029 28.89773926 -9.84388184 28.72516602 -10.65893555 28.54736328 C-12.7287033 28.06343177 -14.7738163 27.4765788 -16.8125 26.875 C-26.63507365 24.43400257 -36.49570661 25.66473134 -45.4453125 30.25390625 C-52.88017872 34.75653975 -56.79300939 40.63463819 -59 49 C-59.3311181 52.41997176 -59.38107226 55.8155312 -59.375 59.25 C-59.37338867 60.18714844 -59.37177734 61.12429688 -59.37011719 62.08984375 C-59.25216047 68.72317438 -58.58112341 74.26771565 -55 80 C-54.4225 80.928125 -53.845 81.85625 -53.25 82.8125 C-45.25803737 90.58246367 -36.81686045 92.39440986 -25.90234375 92.265625 C-21.28811876 91.95154362 -17.11086467 91.05382835 -12.68359375 89.75390625 C-9.80652482 88.94564671 -6.95282338 88.44660912 -4 88 C-3.32523211 91.8736343 -2.66162968 95.74910183 -2 99.625 C-1.80921875 100.71941406 -1.6184375 101.81382813 -1.421875 102.94140625 C-1.24140625 104.00488281 -1.0609375 105.06835938 -0.875 106.1640625 C-0.70742188 107.13811035 -0.53984375 108.1121582 -0.3671875 109.11572266 C0.01375517 112.10804756 0.06252962 114.98685417 0 118 C-1.56119422 118.79423861 -3.12401964 119.58527123 -4.6875 120.375 C-5.55761719 120.81585937 -6.42773438 121.25671875 -7.32421875 121.7109375 C-23.07962751 129.30113442 -43.20167947 129.54463092 -59.74609375 124.2578125 C-77.40114442 117.43317107 -89.63351696 107.02147793 -97.67578125 89.76171875 C-101.1753821 79.82037474 -102.55921774 70.20016705 -102.5 59.6875 C-102.49500488 58.51195557 -102.49000977 57.33641113 -102.48486328 56.12524414 C-102.21444081 42.57707817 -98.98875407 31.13871411 -91 20 C-90.13955078 18.75669922 -90.13955078 18.75669922 -89.26171875 17.48828125 C-80.48387604 5.62092869 -66.58337908 -3.97326095 -52 -7 C-33.73739873 -9.62247627 -16.35600208 -9.15501886 0 0 Z " fill="#5082FE" transform="translate(367,1591)"/>
<path d="M0 0 C7.23364486 5.3897746 7.23364486 5.3897746 10.72265625 8.16796875 C20.3714992 15.79989227 30.6199654 22.40964995 41 29 C40.59432055 31.04781806 40.18832908 33.09557467 39.78100586 35.14306641 C39.42134706 36.95111665 39.06281972 38.75939226 38.70532227 40.56787109 C37.83570091 44.93907187 36.94688174 49.30059919 35.94921875 53.64453125 C30.82253888 76.14195576 29.64389991 98.98540132 28 122 C1.93 122 -24.14 122 -51 122 C-50.37933507 112.69002599 -49.7881842 104.09318112 -47.9375 95.0625 C-47.72125977 94.00401855 -47.50501953 92.94553711 -47.28222656 91.85498047 C-40.26982054 59.20618527 -24.79392758 23.30031748 0 0 Z " fill="#F4F4F1" transform="translate(791,667)"/>
<path d="M0 0 C25.74 0 51.48 0 78 0 C78.495 8.91 78.495 8.91 79 18 C79.37077725 22.09859176 79.76517248 26.16668991 80.25 30.25 C80.37640869 31.32354736 80.50281738 32.39709473 80.63305664 33.50317383 C82.80422508 51.21133023 85.03792176 69.31918606 90.3984375 86.3828125 C91.04704045 89.20465651 91.02886275 90.33600939 90 93 C88.36450195 94.38110352 88.36450195 94.38110352 86.23828125 95.62890625 C85.45541748 96.10126709 84.67255371 96.57362793 83.8659668 97.06030273 C83.02332275 97.55602783 82.18067871 98.05175293 81.3125 98.5625 C70.41701857 105.19083231 60.76945728 112.83688099 51 121 C47.9478328 119.66838317 46.1836636 118.34781394 44.15234375 115.71875 C43.63518799 115.05133789 43.11803223 114.38392578 42.58520508 113.69628906 C42.0414624 112.97151367 41.49771973 112.24673828 40.9375 111.5 C40.36604248 110.74170898 39.79458496 109.98341797 39.20581055 109.20214844 C15.75236613 77.57528759 0 39.68214405 0 0 Z " fill="#F5F5F1" transform="translate(741,813)"/>
<path d="M0 0 C29.37 0 58.74 0 89 0 C89 9.24 89 18.48 89 28 C72.83 28 56.66 28 40 28 C40 36.91 40 45.82 40 55 C54.85 55 69.7 55 85 55 C85 62.92 85 70.84 85 79 C70.15 79 55.3 79 40 79 C40 95.5 40 112 40 129 C26.8 129 13.6 129 0 129 C0 86.43 0 43.86 0 0 Z " fill="#4F82FF" transform="translate(889,1586)"/>
<path d="M0 0 C33.33 0 66.66 0 101 0 C101 9.57 101 19.14 101 29 C91.43 29 81.86 29 72 29 C72 62 72 95 72 129 C57.81 129 43.62 129 29 129 C29 96 29 63 29 29 C19.43 29 9.86 29 0 29 C0 19.43 0 9.86 0 0 Z " fill="#4F82FF" transform="translate(1285,1586)"/>
<path d="M0 0 C13.53 0 27.06 0 41 0 C41 32.67 41 65.34 41 99 C56.18 99 71.36 99 87 99 C86.34 108.9 85.68 118.8 85 129 C56.95 129 28.9 129 0 129 C0 86.43 0 43.86 0 0 Z " fill="#5083FE" transform="translate(381,1586)"/>
<path d="M0 0 C0.51844482 0.17668213 1.03688965 0.35336426 1.57104492 0.53540039 C25.99676606 8.77750451 49.09071665 13.6446106 75 16 C75 37.78 75 59.56 75 82 C46.62 82 18.24 82 -11 82 C-11 56.5583046 -11 56.5583046 -9.25 44.9375 C-8.98038452 43.04414917 -8.98038452 43.04414917 -8.70532227 41.11254883 C-7.58788024 33.44710084 -6.350227 25.80415238 -4.9375 18.1875 C-4.78764648 17.37724365 -4.63779297 16.5669873 -4.48339844 15.73217773 C-3.41764961 10.32413 -1.85419335 5.18850867 0 0 Z " fill="#F4F4F1" transform="translate(854,707)"/>
<path d="M0 0 C28.38 0 56.76 0 86 0 C86 21.45 86 42.9 86 65 C76.1 65.99 76.1 65.99 66 67 C62.42108279 67.48260432 58.91713083 67.97592035 55.375 68.625 C54.05326782 68.86452393 54.05326782 68.86452393 52.70483398 69.10888672 C41.77883639 71.23694567 31.2326401 74.71505341 20.66064453 78.14941406 C17.45817696 79.17321632 14.24072346 80.1056894 11 81 C5.49010822 65.20302303 3.0409026 48.8964526 1.25 32.3125 C1.12230225 31.16265625 0.99460449 30.0128125 0.86303711 28.828125 C-0.11366673 19.0871686 0 9.93124371 0 0 Z " fill="#F4F4F1" transform="translate(843,813)"/>
<path d="M0 0 C28.05 0 56.1 0 85 0 C85 12.79456292 84.98195872 24.47842394 83.2734375 36.9921875 C83.02085026 38.84689954 82.7906601 40.70462486 82.5625 42.5625 C81.67968168 49.37281276 80.44675185 56.08927112 79.0625 62.8125 C78.82587646 63.97736938 78.82587646 63.97736938 78.58447266 65.16577148 C77.43231396 70.5885445 75.85272669 75.77656604 74 81 C69.55859211 79.70373746 65.13536067 78.39950418 60.76953125 76.86328125 C40.88815459 69.86839068 21.14454749 67.34939417 0 65 C0 43.55 0 22.1 0 0 Z " fill="#F5F5F1" transform="translate(953,813)"/>
<path d="M0 0 C14.19 0 28.38 0 43 0 C43 42.9 43 85.8 43 130 C28.81 130 14.62 130 0 130 C0 87.1 0 44.2 0 0 Z " fill="#5183FE" transform="translate(1398,1585)"/>
<path d="M0 0 C14.19 0 28.38 0 43 0 C43 42.9 43 85.8 43 130 C28.81 130 14.62 130 0 130 C0 87.1 0 44.2 0 0 Z " fill="#5183FE" transform="translate(1060,1409)"/>
<path d="M0 0 C13.86 0 27.72 0 42 0 C42 42.57 42 85.14 42 129 C28.14 129 14.28 129 0 129 C0 86.43 0 43.86 0 0 Z " fill="#4F82FF" transform="translate(994,1586)"/>
<path d="M0 0 C13.86 0 27.72 0 42 0 C42 42.57 42 85.14 42 129 C28.14 129 14.28 129 0 129 C0 86.43 0 43.86 0 0 Z " fill="#4F82FF" transform="translate(826,1586)"/>
<path d="M0 0 C3.38313929 1.62672354 6.10424628 3.55096183 9.0625 5.875 C26.79128713 19.42275983 46.63447284 30.0055302 67 39 C65.14589647 45.86986529 62.77761325 52.15542463 59.5625 58.5 C58.91595459 59.78269775 58.91595459 59.78269775 58.25634766 61.09130859 C50.6700392 75.77439901 41.11567411 90.64155552 29 102 C28.47535156 101.48953125 27.95070313 100.9790625 27.41015625 100.453125 C16.58707029 90.29635216 4.24758066 82.00110988 -8.65625 74.71875 C-11 73 -11 73 -11.9453125 71.1328125 C-12.01890509 68.2627014 -11.28047843 66.10525937 -10.375 63.375 C-4.21291911 42.71390526 -1.86497431 21.39959318 0 0 Z " fill="#F4F4F1" transform="translate(1061,833)"/>
<path d="M0 0 C0 32.34 0 64.68 0 98 C-17.30456377 95.11590604 -31.35590503 81.39080908 -41.4140625 67.68359375 C-52.96031735 51.41545064 -61.83581377 33.98817165 -68 15 C-53.39044512 8.67143706 -38.26176816 3.88217007 -22.5625 1.125 C-21.9027417 1.00487549 -21.2429834 0.88475098 -20.56323242 0.76098633 C-13.5811033 -0.34280301 -7.29875701 0 0 0 Z " fill="#F3F4F0" transform="translate(929,902)"/>
<path d="M0 0 C0 32.34 0 64.68 0 98 C-17.67893487 96.82140434 -17.67893487 96.82140434 -25.6875 95.3125 C-27.07062378 95.05521118 -27.07062378 95.05521118 -28.48168945 94.79272461 C-42.08987897 92.13794943 -55.64576458 88.40380093 -68 82 C-56.66150984 49.70248257 -38.86140611 16.88143027 -7.06640625 1.21484375 C-4 0 -4 0 0 0 Z " fill="#F3F3F0" transform="translate(929,602)"/>
<path d="M0 0 C9.17159565 0 16.68802649 0.35220177 25.4375 2.25 C26.52788574 2.47888916 27.61827148 2.70777832 28.74169922 2.94360352 C42.03818405 5.78690814 54.47535094 9.73754241 67 15 C63.34171764 38.39494152 46.22751481 63.46365705 30 80 C29.25492188 80.76957031 28.50984375 81.53914062 27.7421875 82.33203125 C20.10302907 89.73167811 10.50831363 95.89833727 0 98 C0 65.66 0 33.32 0 0 Z " fill="#F4F5F1" transform="translate(953,902)"/>
<path d="M0 0 C0.26103516 0.72888428 0.52207031 1.45776855 0.79101562 2.20874023 C8.42365485 23.42406867 16.795162 42.68637624 28.68481445 61.86621094 C30.14302225 64.23204278 31.57015249 66.61692082 33 69 C10.56 69 -11.88 69 -35 69 C-35.020625 58.295625 -35.04125 47.59125 -35.0625 36.5625 C-35.071604 33.17814697 -35.08070801 29.79379395 -35.09008789 26.30688477 C-35.09300674 23.64339233 -35.09555537 20.97989945 -35.09765625 18.31640625 C-35.10026962 17.61990463 -35.102883 16.92340302 -35.10557556 16.20579529 C-35.11285608 14.16398221 -35.11333839 12.12214832 -35.11352539 10.08032227 C-35.115746 8.92782486 -35.11796661 7.77532745 -35.12025452 6.58790588 C-35 4 -35 4 -34 3 C-32.08770049 2.70022701 -30.16594397 2.46037001 -28.2421875 2.24609375 C-27.05882812 2.11396484 -25.87546875 1.98183594 -24.65625 1.84570312 C-22.78453125 1.64364258 -22.78453125 1.64364258 -20.875 1.4375 C-19.65039062 1.29892578 -18.42578125 1.16035156 -17.1640625 1.01757812 C-11.41639856 0.38620595 -5.78368624 -0.19736615 0 0 Z " fill="#F2F2F0" transform="translate(987,720)"/>
<path d="M0 0 C7.70887469 4.74293949 11.85775712 11.9427179 14.35546875 20.44921875 C14.89588921 24.09572576 14.97711073 27.64222669 14.91796875 31.32421875 C14.90262085 32.76776733 14.90262085 32.76776733 14.88696289 34.24047852 C14.60505085 43.70170204 12.52255286 51.28422274 6.10546875 58.44921875 C0.05304817 63.79574146 -6.24217021 66.12184588 -14.30859375 65.6875 C-23.00146634 64.80076885 -27.90141513 60.83261471 -33.64453125 54.44921875 C-40.72944818 45.56144349 -39.74003864 32.9346512 -38.97851562 22.16503906 C-37.96788589 13.94702357 -33.5349264 7.25259459 -27.4140625 1.78515625 C-19.2435244 -4.38332947 -9.06948006 -4.10938286 0 0 Z " fill="#FDFDFD" transform="translate(1537.64453125,1618.55078125)"/>
<path d="M0 0 C25.63636364 0 25.63636364 0 33.9140625 6.50390625 C40.25890749 12.98940051 42.22954321 21.62962386 42.5 30.4375 C42.18381045 40.80851722 39.51350775 50.52261489 32 58 C22.77196175 65.40904994 11.32289446 64 0 64 C0 42.88 0 21.76 0 0 Z " fill="#FDFDFD" transform="translate(1165,1442)"/>
<path d="M0 0 C11.66099222 3.49829767 11.66099222 3.49829767 17.125 7.1875 C17.71684082 7.57752197 18.30868164 7.96754395 18.91845703 8.36938477 C23.78344899 11.66440189 28.38720626 15.3213199 32 20 C32 20.66 32 21.32 32 22 C29.69 22.33 27.38 22.66 25 23 C22.11644437 46.48038159 23.9844671 70.77268569 28 94 C21 96 21 96 0 98 C0 65.66 0 33.32 0 0 Z " fill="#F4F4F1" transform="translate(953,602)"/>
<path d="M0 0 C10.51559131 2.38342324 19.64660556 11.44562192 28 18 C29.17755859 18.79664063 29.17755859 18.79664063 30.37890625 19.609375 C30.91386719 20.06828125 31.44882813 20.5271875 32 21 C32 24 32 24 30.69335938 25.37524414 C30.08298828 25.84051514 29.47261719 26.30578613 28.84375 26.78515625 C28.15909668 27.31085205 27.47444336 27.83654785 26.76904297 28.37817383 C26.02025879 28.93400146 25.27147461 29.4898291 24.5 30.0625 C23.73187988 30.63959717 22.96375977 31.21669434 22.17236328 31.8112793 C7.44103278 42.73226258 -8.3996051 51.96526808 -25.3125 59.0625 C-26.04847412 59.37405029 -26.78444824 59.68560059 -27.54272461 60.0065918 C-29.33699639 60.73542876 -31.16657407 61.37616996 -33 62 C-33.66 61.67 -34.32 61.34 -35 61 C-34.21689453 60.12214844 -34.21689453 60.12214844 -33.41796875 59.2265625 C-18.46497703 41.78577005 -9.17801074 20.8602843 0 0 Z " fill="#F2F2EF" transform="translate(1041,929)"/>
<path d="M0 0 C0.28085449 0.66306152 0.56170898 1.32612305 0.85107422 2.00927734 C9.10479677 21.39296897 17.61015482 39.30254846 30.62890625 55.9375 C33 59 33 59 34 61 C26.95131034 59.09172371 20.44668024 56.61191374 13.875 53.4375 C12.96556641 52.99986328 12.05613281 52.56222656 11.11914062 52.11132812 C-4.73874606 44.3326174 -18.49715418 34.31915117 -32 23 C-28.38551101 18.31837616 -24.62197102 14.91682135 -19.8125 11.5 C-19.15483643 11.0258667 -18.49717285 10.5517334 -17.81958008 10.06323242 C-3.7158987 0 -3.7158987 0 0 0 Z " fill="#F2F2EF" transform="translate(840,929)"/>
<path d="M0 0 C0 3.81763622 -1.03946336 4.52645566 -3.5 7.375 C-16.46434166 23.20012459 -26.02507331 42.84102417 -33 62 C-44.23953838 56.68367407 -55.34001397 48.95717497 -64 40 C-62.45134316 35.82830564 -59.41518504 33.57057076 -56 30.9375 C-55.07936768 30.22339966 -55.07936768 30.22339966 -54.14013672 29.49487305 C-37.6367614 16.97655934 -19.07346323 7.86780358 0 0 Z " fill="#F2F2EF" transform="translate(873,611)"/>
<path d="M0 0 C20.39991156 0 20.39991156 0 26.5625 6.0625 C29.43270494 9.80728262 29.64159912 13.09028223 29.3203125 17.70703125 C28.66030096 22.43174801 27.6825402 24.34779492 24.1875 27.6875 C15.8138113 33.76252906 11.80523505 32 0 32 C0 21.44 0 10.88 0 0 Z " fill="#FBFCFD" transform="translate(799,1436)"/>
<path d="M0 0 C2.67431808 2.67431808 2.89916649 5.44861752 3.5859375 9.03515625 C3.72786026 9.74191498 3.86978302 10.44867371 4.01600647 11.17684937 C4.47562895 13.47080067 4.9252029 15.76660406 5.375 18.0625 C5.99479649 21.17005873 6.62007323 24.27650234 7.24609375 27.3828125 C7.39802689 28.13978928 7.54996002 28.89676605 7.70649719 29.67668152 C9.09435656 36.55517142 10.67427331 43.37501297 12.37109375 50.18359375 C13 53 13 53 13 56 C4.75 56 -3.5 56 -12 56 C-9.75286385 42.5171831 -9.75286385 42.5171831 -8.6328125 38.02734375 C-8.38869629 37.03404053 -8.14458008 36.0407373 -7.89306641 35.01733398 C-7.63960449 34.00098877 -7.38614258 32.98464355 -7.125 31.9375 C-4.52635579 21.33314923 -2.16806392 10.70003313 0 0 Z " fill="#FBFCFD" transform="translate(1224,1611)"/>
<path d="M0 0 C0.66 0.33 1.32 0.66 2 1 C2.71520638 3.54841235 3.30695598 6.04103126 3.83984375 8.62890625 C4.00746719 9.41079819 4.17509064 10.19269012 4.34779358 10.99827576 C4.88565829 13.51806638 5.41147222 16.04021484 5.9375 18.5625 C6.28767601 20.20523507 6.63857962 21.84781522 6.99023438 23.49023438 C9.14943364 33.63335252 11.12682254 43.80028449 13 54 C4.75 54 -3.5 54 -12 54 C-8.38357586 35.91787929 -4.70789542 17.83461557 0 0 Z " fill="#FBFCFD" transform="translate(536,1613)"/>
</svg>
